<svg xmlns="http://www.w3.org/2000/svg" viewBox="0 0 46.84 43.87"><defs><style>.cls-1{fill:#fff;}</style></defs><title>assest-speaker--audible</title><g id="Layer_2" data-name="Layer 2"><g id="tea-timer-ip6-screen"><g id="speaker--outline--on"><path id="speaker--outline" class="cls-1" d="M29,1V42.86a1,1,0,0,1-1.5.87L9.85,33.55a1,1,0,0,0-.5-.13H1a1,1,0,0,1-1-1V11.29a1,1,0,0,1,1-1H9.49a1,1,0,0,0,.5-.13l17.5-10A1,1,0,0,1,29,1Z"/><path id="speaker-outline--on" class="cls-1" d="M31.5,13.9h0a1.64,1.64,0,0,0,.55,1.24,8.93,8.93,0,0,1,0,13.55,1.64,1.64,0,0,0-.56,1.24v0a1.68,1.68,0,0,0,2.81,1.25,12,12,0,0,0,4.15-9.29,12,12,0,0,0-4.15-9.27A1.68,1.68,0,0,0,31.5,13.9Z"/><path id="speaker-outline--on-2" data-name="speaker-outline--on" class="cls-1" d="M38,11.75h0a2.12,2.12,0,0,0,.72,1.59,11.32,11.32,0,0,1,0,17.14A2.12,2.12,0,0,0,38,32.08v0a2.13,2.13,0,0,0,3.57,1.57,15.27,15.27,0,0,0,5.25-11.77,15.23,15.23,0,0,0-5.25-11.74A2.13,2.13,0,0,0,38,11.75Z"/></g></g></g></svg>