<svg xmlns="http://www.w3.org/2000/svg" viewBox="0 0 92 95"><defs><style>.cls-1{fill:#fff; stroke:black;}</style></defs><title>assest-add-timer</title><g id="Layer_2" data-name="Layer 2"><g id="tea-timer-iphone6-screen"><g id="action-buttons"><g id="add-timer--dark-plus"><path id="add-timer--dark-plus-2" data-name="add-timer--dark-plus" class="cls-1" d="M90.79,92.35h0C90.48,69.16,81.62,49,68.54,38V25.34A27,27,0,0,0,62,7.44,21.1,21.1,0,0,0,46.17,0C33.87,0,23.81,11.39,23.81,25.34V37.41A47.53,47.53,0,0,0,18,42.94L11.16,37l-9,8.92,8.59,7.38C4.7,64.07,1.05,77.65.86,92.41A1.32,1.32,0,0,0,0,93.68,1.27,1.27,0,0,0,1.21,95H90.79a1.33,1.33,0,0,0,0-2.65Zm-32.5-26.6H47.23V76.7H44.77V65.75H33.71V63.31H44.77V52.36h2.45V63.31H58.29ZM65.2,35.44a34.45,34.45,0,0,0-17-6.19c1.58-1,3.38-2.49,3.38-4.16a5.74,5.74,0,0,0-11.47,0c0,1.67,1.79,3.17,3.37,4.16A34.22,34.22,0,0,0,27.14,35v-8.4c0-11.85,7.63-23.06,19-23.06C58,3.5,65.2,14,65.2,26.56Z"/></g></g></g></g></svg>