<svg xmlns="http://www.w3.org/2000/svg" viewBox="0 0 53 53"><defs><style>.cls-1{fill:#fff;stroke:#000;stroke-miterlimit:10;stroke-width:3px;}</style></defs><title>icon-no-color</title><g id="Layer_2" data-name="Layer 2"><g id="tt_bg-black"><g id="icon-color"><path class="cls-1" d="M44.18,8.82,30.74,22.26A5.94,5.94,0,0,0,26.5,20.5V1.5A24.94,24.94,0,0,1,44.18,8.82Z"/><path class="cls-1" d="M26.5,32.5v19A24.94,24.94,0,0,1,8.82,44.18L22.26,30.74A5.94,5.94,0,0,0,26.5,32.5Z"/><path class="cls-1" d="M26.5,1.5v19a5.94,5.94,0,0,0-4.24,1.76L8.82,8.82A24.94,24.94,0,0,1,26.5,1.5Z"/><path class="cls-1" d="M22.26,30.74,8.82,44.18A24.94,24.94,0,0,1,1.5,26.5h19A5.94,5.94,0,0,0,22.26,30.74Z"/><path class="cls-1" d="M22.26,22.26A5.94,5.94,0,0,0,20.5,26.5H1.5A24.94,24.94,0,0,1,8.82,8.82Z"/><path class="cls-1" d="M44.18,44.18A24.94,24.94,0,0,1,26.5,51.5v-19a5.94,5.94,0,0,0,4.24-1.76Z"/><path class="cls-1" d="M51.5,26.5h-19a5.94,5.94,0,0,0-1.76-4.24L44.18,8.82A24.94,24.94,0,0,1,51.5,26.5Z"/><path class="cls-1" d="M51.5,26.5a24.94,24.94,0,0,1-7.32,17.68L30.74,30.74A5.94,5.94,0,0,0,32.5,26.5Z"/></g></g></g></svg>