<svg xmlns="http://www.w3.org/2000/svg" viewBox="0 0 65.76 36.75"><defs><style>.cls-1{fill:#fff;}</style></defs><title>assest-cup</title><g id="Layer_2" data-name="Layer 2"><g id="tea-timer-iphone6-screen"><g id="additional-timers"><path id="cup--dark" class="cls-1" d="M60.42,0,.13.52S0,4.8,0,7.78c0,16.48,11.44,29,26.85,29,11.06,0,21.66-6,26.16-15.55,5.1-.94,12.75-3.77,12.75-12.3V8.37C65.76,4.34,63.48.94,60.42,0Zm2,9.19c0,4.79-4.11,6.95-7.81,7.91a30.18,30.18,0,0,0,1.2-8.55,31.79,31.79,0,0,0-.5-5.62h1.54a5.75,5.75,0,0,1,5.57,5.88Z"/></g></g></g></svg>