<svg xmlns="http://www.w3.org/2000/svg" viewBox="0 0 57 57"><defs><style>.cls-1{fill:none;stroke:#fff;stroke-miterlimit:10;stroke-width:3px;}</style></defs><title>icon--color</title><g id="Layer_2" data-name="Layer 2"><g id="tt_bg-tea--add_sub" data-name="tt_bg-tea--add/sub"><g id="icon-color"><path class="cls-1" d="M46.18,10.82,32.74,24.26A5.94,5.94,0,0,0,28.5,22.5V3.5A24.94,24.94,0,0,1,46.18,10.82Z"/><path class="cls-1" d="M28.5,34.5v19a24.94,24.94,0,0,1-17.68-7.32L24.26,32.74A5.94,5.94,0,0,0,28.5,34.5Z"/><path class="cls-1" d="M28.5,3.5v19a5.94,5.94,0,0,0-4.24,1.76L10.82,10.82A24.94,24.94,0,0,1,28.5,3.5Z"/><path class="cls-1" d="M24.26,32.74,10.82,46.18A24.94,24.94,0,0,1,3.5,28.5h19A5.94,5.94,0,0,0,24.26,32.74Z"/><path class="cls-1" d="M24.26,24.26A5.94,5.94,0,0,0,22.5,28.5H3.5a24.94,24.94,0,0,1,7.32-17.68Z"/><path class="cls-1" d="M46.18,46.18A24.94,24.94,0,0,1,28.5,53.5v-19a5.94,5.94,0,0,0,4.24-1.76Z"/><path class="cls-1" d="M53.5,28.5h-19a5.94,5.94,0,0,0-1.76-4.24L46.18,10.82A24.94,24.94,0,0,1,53.5,28.5Z"/><path class="cls-1" d="M53.5,28.5a24.94,24.94,0,0,1-7.32,17.68L32.74,32.74A5.94,5.94,0,0,0,34.5,28.5Z"/></g><circle class="cls-1" cx="28.5" cy="28.5" r="27"/></g></g></svg>