<svg xmlns="http://www.w3.org/2000/svg" viewBox="0 0 52.88 43.87"><defs><style>.cls-1{fill:#fff;}</style></defs><title>assest-speaker-mute</title><g id="Layer_2" data-name="Layer 2"><g id="tea-timer-ip6-screen"><g id="settings"><g id="_--solid-off" data-name="--solid-off"><g id="speaker--solid--off"><path id="speaker--solid" class="cls-1" d="M29,1V42.86a1,1,0,0,1-1.5.87L9.85,33.55a1,1,0,0,0-.5-.13H1a1,1,0,0,1-1-1V11.29a1,1,0,0,1,1-1H9.49a1,1,0,0,0,.5-.13l17.5-10A1,1,0,0,1,29,1Z"/></g><path id="_--off" data-name="--off" class="cls-1" d="M46.92,22.28l5.66,5.66a1,1,0,0,1,0,1.41l-2.13,2.13a1,1,0,0,1-1.41,0l-5.66-5.66a1,1,0,0,0-1.41,0l-5.66,5.66a1,1,0,0,1-1.41,0l-2.13-2.13a1,1,0,0,1,0-1.41l5.66-5.66a1,1,0,0,0,0-1.41l-5.66-5.66a1,1,0,0,1,0-1.41l2.13-2.13a1,1,0,0,1,1.4,0L42,17.35a1,1,0,0,0,1.41,0L49,11.68a1,1,0,0,1,1.4,0l2.13,2.13a1,1,0,0,1,0,1.41l-5.66,5.66A1,1,0,0,0,46.92,22.28Z"/></g></g></g></g></svg>